<?xml version="1.0" standalone="no"?>
<!DOCTYPE svg PUBLIC "-//W3C//DTD SVG 20010904//EN"
 "http://www.w3.org/TR/2001/REC-SVG-20010904/DTD/svg10.dtd">
<svg version="1.0" xmlns="http://www.w3.org/2000/svg"
 width="1920.000000pt" height="1920.000000pt" viewBox="0 0 1920.000000 1920.000000"
 preserveAspectRatio="xMidYMid meet">

<g transform="translate(0.000000,1920.000000) scale(0.100000,-0.100000)"
fill="#ffffff" stroke="none">
<path d="M9430 10374 c-134 -29 -275 -127 -350 -244 -58 -91 -83 -181 -83
-300 0 -160 43 -269 151 -382 173 -182 431 -228 650 -117 98 49 159 102 215
187 189 283 88 666 -215 811 -127 61 -235 74 -368 45z"/>
<path d="M6447 10153 c-3 -10 -24 -72 -47 -138 -216 -626 -227 -1317 -33
-1965 40 -136 137 -375 206 -510 160 -312 337 -558 581 -809 481 -491 1074
-815 1751 -955 256 -52 356 -61 705 -60 286 0 343 3 470 23 633 98 1151 318
1640 697 140 108 426 391 540 534 175 219 362 534 466 785 109 264 187 562
226 865 20 157 17 610 -6 770 -22 160 -59 333 -101 479 -37 127 -108 324 -100
276 2 -16 14 -84 25 -150 82 -498 37 -1001 -135 -1480 -55 -156 -199 -450
-289 -593 -402 -636 -1035 -1132 -1757 -1373 -145 -48 -377 -109 -417 -109
-29 0 -34 61 -33 403 0 385 29 778 76 1047 8 47 15 92 15 100 0 23 -79 -90
-386 -552 -156 -236 -288 -428 -293 -428 -5 0 -55 62 -112 138 -123 164 -266
341 -380 473 -147 169 -274 308 -277 304 -2 -2 10 -63 27 -137 45 -198 85
-456 141 -904 55 -439 56 -454 37 -454 -24 0 -286 69 -374 98 -509 171 -959
454 -1330 835 -504 518 -805 1152 -879 1849 -28 269 -8 663 46 902 10 47 8 76
-3 39z"/>
</g>
</svg>
