<?xml version="1.0" standalone="no"?>
<!DOCTYPE svg PUBLIC "-//W3C//DTD SVG 20010904//EN"
 "http://www.w3.org/TR/2001/REC-SVG-20010904/DTD/svg10.dtd">
<svg version="1.0" xmlns="http://www.w3.org/2000/svg"
 width="5000.000000pt" height="4000.000000pt" viewBox="0 0 5000.000000 4000.000000"
 preserveAspectRatio="xMidYMid meet">

<g transform="translate(0.000000,4000.000000) scale(0.100000,-0.100000)"
fill="#ffffff" stroke="none">
<path d="M23795 28284 c-279 -20 -358 -27 -475 -40 -1469 -163 -2845 -709
-4045 -1604 -592 -442 -1165 -1007 -1617 -1595 -642 -836 -1105 -1751 -1398
-2760 -483 -1667 -416 -3523 186 -5144 30 -79 52 -147 49 -149 -7 -8 -336 82
-492 134 -427 142 -659 278 -729 427 -13 29 -24 68 -24 87 0 93 101 210 266
308 49 30 80 51 69 49 -11 -3 -65 -15 -120 -27 -55 -12 -188 -44 -295 -70
-782 -195 -1235 -406 -1351 -631 -31 -61 -32 -148 -1 -211 206 -420 1703 -815
4102 -1082 549 -61 1586 -156 1707 -156 l33 0 0 350 0 350 -22 4 c-13 3 -126
15 -253 26 -307 28 -782 82 -1153 130 -166 22 -304 40 -306 40 -2 0 -32 64
-66 142 -377 858 -591 1740 -650 2678 -13 212 -13 708 0 920 144 2300 1279
4387 3140 5769 1480 1100 3287 1632 5130 1511 1041 -69 2088 -361 3016 -839
706 -365 1316 -807 1894 -1374 102 -100 176 -170 165 -157 -183 221 -502 549
-775 796 -809 730 -1773 1303 -2800 1662 -670 235 -1314 371 -2100 443 -110
10 -981 20 -1085 13z"/>
<path d="M27790 26999 c-85 -55 -317 -203 -515 -330 -591 -377 -1354 -865
-1452 -929 l-93 -59 0 -6240 c0 -5934 -1 -6240 -17 -6245 -43 -12 -471 -85
-505 -86 -5 0 -8 2594 -8 5765 0 3171 -2 5765 -5 5765 -4 0 -251 -157 -1045
-665 -256 -163 -628 -401 -827 -528 l-363 -231 0 -5017 0 -5017 -137 29 c-76
16 -194 44 -263 62 l-125 34 -3 4042 c-2 3410 -4 4042 -16 4038 -7 -3 -78 -47
-157 -98 -79 -51 -223 -143 -319 -204 -96 -61 -368 -235 -605 -386 -236 -151
-589 -376 -782 -499 l-352 -225 -1 -2787 c0 -1534 -3 -2788 -6 -2788 -9 0
-207 154 -339 264 -143 119 -264 228 -439 396 l-130 125 109 -125 c146 -165
435 -454 615 -614 863 -765 1877 -1315 2980 -1615 882 -239 1801 -314 2720
-220 1937 197 3704 1145 4966 2664 106 128 315 404 394 522 l55 82 60 5 c33 4
220 22 415 41 2455 243 4094 618 4504 1031 73 74 101 132 100 209 -3 231 -357
447 -1074 655 -144 42 -431 114 -595 150 -55 12 -109 24 -120 27 -11 2 20 -19
69 -49 163 -97 266 -215 266 -306 0 -78 -57 -163 -163 -243 -408 -307 -1607
-586 -3387 -788 -725 -83 -1688 -162 -2447 -202 l-233 -13 0 -343 0 -343 33 0
c51 0 612 29 947 50 168 10 307 16 309 15 2 -2 -31 -46 -72 -97 -471 -586
-1000 -1071 -1609 -1474 -86 -57 -159 -104 -162 -104 -3 0 -6 2925 -6 6500 0
3575 -3 6500 -7 6499 -5 0 -78 -46 -163 -100z"/>
</g>
</svg>
