<?xml version="1.0" standalone="no"?>
<!DOCTYPE svg PUBLIC "-//W3C//DTD SVG 20010904//EN"
 "http://www.w3.org/TR/2001/REC-SVG-20010904/DTD/svg10.dtd">
<svg version="1.0" xmlns="http://www.w3.org/2000/svg"
 width="1920.000000pt" height="1823.000000pt" viewBox="0 0 1920.000000 1823.000000"
 preserveAspectRatio="xMidYMid meet">

<g transform="translate(0.000000,1823.000000) scale(0.100000,-0.100000)"
fill="#ffffff" stroke="none">
<path d="M9385 14039 c-329 -19 -687 -105 -1004 -241 -240 -102 -457 -232
-708 -423 -95 -72 -400 -375 -468 -465 -182 -241 -228 -311 -323 -487 -189
-354 -301 -719 -347 -1133 -14 -122 -16 -207 -12 -400 3 -135 8 -256 11 -269
3 -14 10 -61 16 -105 17 -130 56 -303 107 -466 163 -529 473 -1012 885 -1378
148 -131 177 -154 343 -265 164 -110 237 -151 401 -229 195 -92 375 -155 599
-211 169 -43 539 -87 718 -87 99 0 441 34 552 54 569 105 1106 373 1524 760
499 462 825 1047 947 1701 154 826 -34 1680 -519 2360 -274 384 -635 704
-1042 921 -407 218 -826 338 -1276 364 -191 11 -213 11 -404 -1z m2634 -1636
c-13 -14 -42 -42 -64 -62 -61 -56 -272 -251 -450 -416 -89 -82 -212 -197 -275
-255 -63 -58 -187 -172 -275 -255 -89 -82 -269 -249 -400 -370 -262 -241 -459
-424 -759 -703 l-197 -184 -152 144 c-84 78 -180 167 -212 197 -33 30 -123
113 -200 185 -78 72 -192 178 -254 236 -63 58 -187 173 -276 255 -89 83 -269
249 -400 370 -131 121 -311 288 -400 370 -88 83 -215 199 -281 260 -177 164
-254 238 -251 242 2 2 46 -17 98 -41 152 -71 881 -410 1009 -469 41 -19 174
-80 295 -137 121 -56 312 -145 425 -197 113 -53 237 -110 275 -128 218 -102
335 -155 343 -155 6 0 102 43 214 96 111 53 244 115 293 139 363 171 651 307
905 427 162 77 335 159 385 182 49 22 208 98 355 168 146 70 267 127 269 127
3 1 -6 -11 -20 -26z m-55 -1601 c-71 -68 -289 -271 -734 -682 -134 -124 -318
-295 -410 -380 -91 -85 -220 -204 -285 -265 -65 -60 -196 -182 -290 -270 -453
-422 -635 -590 -644 -590 -9 0 -261 230 -706 646 -50 46 -138 127 -195 179
-57 52 -174 160 -260 240 -86 80 -261 242 -390 360 -128 118 -337 312 -465
430 -127 118 -273 253 -324 299 -50 46 -90 85 -88 87 4 4 76 -27 222 -96 33
-15 150 -69 260 -120 110 -51 292 -135 405 -187 113 -53 291 -135 395 -183
105 -48 316 -146 470 -218 154 -71 373 -173 487 -226 l207 -95 333 158 c407
193 845 401 993 471 239 113 641 303 850 403 121 58 225 106 230 106 6 0 -22
-30 -61 -67z"/>
<path d="M6683 6918 c-5 -7 -42 -85 -81 -173 -39 -88 -318 -713 -621 -1388
-303 -676 -551 -1232 -551 -1238 0 -15 557 -12 567 4 4 6 60 127 124 267 l116
255 737 0 738 0 118 -265 119 -265 287 -3 c270 -2 286 -1 281 15 -2 10 -191
434 -420 943 -228 509 -509 1134 -624 1390 l-208 465 -286 3 c-222 2 -288 -1
-296 -10z m430 -893 c69 -159 184 -423 255 -585 l128 -295 -257 -3 c-142 -1
-377 -1 -522 0 l-265 3 249 570 c137 314 253 581 259 594 6 14 15 20 19 15 5
-5 65 -139 134 -299z"/>
<path d="M8060 6690 l0 -240 445 0 445 0 0 -1170 0 -1170 265 0 265 0 0 1170
0 1170 445 0 445 0 0 240 0 240 -1155 0 -1155 0 0 -240z"/>
<path d="M10702 5523 l3 -1408 262 -3 263 -2 2 472 3 473 252 3 253 2 302
-347 c167 -191 353 -403 414 -472 l110 -126 315 0 c286 0 314 1 314 17 0 9
-188 228 -418 487 -229 259 -418 476 -420 482 -1 6 35 21 81 35 285 83 474
259 561 519 39 116 52 201 52 336 0 265 -83 475 -258 652 -154 155 -357 248
-608 277 -53 6 -375 10 -788 10 l-697 0 2 -1407z m1518 889 c170 -60 272 -182
300 -356 32 -202 -68 -397 -244 -476 -101 -45 -159 -50 -619 -50 l-427 0 0
448 c0 247 3 452 7 456 4 4 213 6 463 4 444 -3 457 -4 520 -26z"/>
<path d="M13420 5520 l0 -1410 260 0 260 0 0 1410 0 1410 -260 0 -260 0 0
-1410z"/>
<path d="M14370 6915 c0 -8 209 -317 465 -685 256 -369 468 -677 471 -685 4
-8 -193 -300 -480 -714 -267 -384 -486 -704 -486 -710 0 -8 89 -11 294 -11
l294 0 288 423 c158 232 321 471 361 530 l75 108 17 -23 c10 -13 165 -241 346
-508 180 -267 337 -495 348 -507 20 -23 22 -23 308 -23 158 0 290 4 293 8 2 4
-56 96 -131 202 -618 884 -844 1214 -840 1224 3 7 171 250 374 542 203 291
415 595 471 676 56 81 102 151 102 157 0 8 -87 11 -292 9 l-293 -3 -257 -385
c-142 -212 -300 -447 -352 -523 l-94 -139 -353 526 -353 526 -288 0 c-250 0
-288 -2 -288 -15z"/>
<path d="M2230 5515 l0 -1405 265 0 265 0 2 1022 3 1022 171 -235 c94 -129
289 -396 434 -594 144 -198 269 -368 278 -378 12 -14 28 -17 66 -15 l50 3 456
608 455 607 3 -1020 2 -1020 265 0 265 0 0 1405 0 1405 -306 -2 -307 -3 -432
-595 c-238 -327 -437 -595 -441 -597 -5 -1 -205 267 -444 597 l-435 600 -307
0 -308 0 0 -1405z"/>
</g>
</svg>
