<?xml version="1.0" standalone="no"?>
<!DOCTYPE svg PUBLIC "-//W3C//DTD SVG 20010904//EN"
 "http://www.w3.org/TR/2001/REC-SVG-20010904/DTD/svg10.dtd">
<svg version="1.0" xmlns="http://www.w3.org/2000/svg"
 width="4167.000000pt" height="3333.000000pt" viewBox="0 0 4167.000000 3333.000000"
 preserveAspectRatio="xMidYMid meet">

<g transform="translate(0.000000,3333.000000) scale(0.100000,-0.100000)"
fill="#ffffff" stroke="none">
<path d="M24697 25435 c-579 -120 -930 -687 -776 -1255 44 -162 135 -317 258
-441 130 -130 283 -217 466 -265 87 -23 119 -27 245 -27 124 0 159 4 245 27
350 92 614 349 722 701 25 84 27 102 27 275 0 174 -2 190 -28 275 -30 98 -85
216 -137 292 -47 69 -174 198 -245 249 -80 58 -228 127 -329 154 -103 29 -345
37 -448 15z"/>
<path d="M23390 23064 c-58 -8 -169 -30 -247 -49 -900 -224 -1730 -960 -2248
-1994 -91 -183 -210 -461 -187 -436 5 6 57 73 115 150 506 673 1030 1129 1464
1275 481 161 805 -85 900 -682 25 -156 25 -600 0 -808 -172 -1440 -853 -3040
-1877 -4410 -253 -339 -499 -632 -808 -964 -134 -145 -165 -182 -131 -161 895
563 1745 1315 2478 2195 757 907 1400 1968 1800 2970 360 900 440 1559 254
2093 -43 125 -75 189 -152 303 -75 113 -227 260 -343 332 -154 95 -368 168
-568 192 -114 14 -322 11 -450 -6z"/>
<path d="M16540 11490 l0 -1290 160 0 160 0 0 1290 0 1290 -160 0 -160 0 0
-1290z"/>
<path d="M18610 11490 l0 -1290 160 0 159 0 3 593 3 592 27 59 c92 194 248
294 446 284 187 -9 297 -105 358 -313 16 -54 18 -122 21 -637 l4 -578 160 0
160 0 -4 608 c-3 534 -6 616 -21 682 -57 244 -200 413 -406 480 -63 21 -94 25
-190 24 -99 0 -126 -4 -195 -28 -44 -15 -104 -41 -133 -58 -68 -38 -167 -130
-204 -187 l-28 -45 0 552 0 552 -160 0 -160 0 0 -1290z"/>
<path d="M28620 11490 l0 -1290 225 0 225 0 0 1290 0 1290 -225 0 -225 0 0
-1290z"/>
<path d="M21025 12663 c-109 -7 -283 -24 -342 -34 l-63 -11 0 -1209 0 -1209
225 0 225 0 0 458 0 457 174 -3 c370 -8 632 75 815 258 158 157 219 332 209
595 -4 95 -11 137 -32 200 -98 288 -338 452 -724 494 -93 10 -359 12 -487 4z
m485 -358 c134 -35 223 -103 276 -211 27 -56 29 -66 29 -184 0 -151 -20 -211
-95 -293 -98 -107 -241 -157 -449 -157 -69 0 -143 3 -163 6 l-38 7 0 418 0
418 53 5 c28 3 66 8 82 10 60 9 243 -3 305 -19z"/>
<path d="M10600 11425 l0 -1225 155 0 155 0 2 573 3 572 590 0 590 0 3 -572 2
-573 160 0 160 0 0 1225 0 1225 -160 0 -160 0 -2 -512 -3 -513 -590 0 -590 0
-3 513 -2 512 -155 0 -155 0 0 -1225z"/>
<path d="M17610 12420 l-135 -37 -3 -212 -2 -211 -135 0 -135 0 0 -120 0 -120
134 0 134 0 5 -567 c5 -620 7 -654 65 -772 53 -107 162 -186 291 -211 99 -19
275 -9 368 21 l32 10 -5 97 c-8 150 -5 144 -67 135 -214 -32 -311 15 -352 172
-13 50 -15 144 -15 587 l0 528 230 0 230 0 0 120 0 120 -230 0 -230 0 0 250 0
250 -22 -1 c-13 -1 -84 -18 -158 -39z"/>
<path d="M23127 11995 c-166 -32 -296 -101 -417 -224 -120 -122 -189 -248
-242 -439 -18 -66 -22 -106 -22 -272 -1 -173 2 -204 22 -278 78 -288 251 -474
527 -569 184 -63 465 -70 730 -17 92 19 232 61 239 73 3 4 -9 76 -27 160 -26
125 -34 150 -47 145 -157 -64 -471 -94 -634 -59 -211 45 -363 197 -382 383
l-7 62 595 0 595 0 7 61 c10 98 7 196 -9 299 -53 352 -240 586 -530 665 -86
23 -299 28 -398 10z m287 -315 c128 -49 218 -188 228 -355 l3 -50 -387 -3
c-441 -3 -400 -13 -373 91 28 107 97 219 167 268 97 70 250 90 362 49z"/>
<path d="M25044 11995 c-240 -42 -444 -171 -569 -360 -61 -92 -94 -167 -127
-285 -20 -76 -23 -106 -22 -280 0 -169 3 -206 22 -275 91 -330 328 -553 661
-620 128 -26 355 -17 476 19 365 109 587 389 626 790 26 269 -39 523 -184 711
-101 132 -269 241 -442 286 -105 27 -326 34 -441 14z m338 -348 c81 -40 167
-135 206 -228 49 -119 65 -221 59 -373 -8 -204 -53 -328 -157 -440 -85 -90
-155 -121 -275 -121 -82 0 -97 3 -156 32 -85 42 -159 120 -204 215 -49 104
-66 176 -72 313 -13 307 105 544 310 617 80 28 215 21 289 -15z"/>
<path d="M27385 12004 c-11 -2 -45 -9 -75 -15 -124 -25 -249 -98 -345 -201
-36 -39 -65 -74 -65 -79 0 -5 -4 -9 -9 -9 -4 0 -11 53 -15 118 -4 64 -9 125
-12 135 -5 15 -23 17 -197 17 l-192 0 3 -1237 c1 -681 4 -1244 7 -1250 3 -10
57 -13 225 -13 l220 0 0 461 0 460 63 -64 c75 -76 171 -128 283 -153 100 -22
300 -15 390 14 216 69 383 218 483 434 131 278 131 676 1 955 -87 188 -248
336 -431 397 -68 23 -105 29 -199 32 -63 2 -124 1 -135 -2z m41 -355 c236 -43
376 -276 361 -603 -6 -135 -23 -211 -68 -304 -126 -258 -456 -320 -658 -123
-101 98 -131 201 -131 452 0 185 17 279 66 370 54 98 175 186 286 208 61 12
77 12 144 0z"/>
<path d="M30135 11996 c-440 -86 -714 -478 -692 -990 15 -358 176 -624 459
-756 244 -114 633 -120 981 -14 48 15 87 32 87 39 0 7 -13 76 -30 153 -16 78
-30 143 -30 145 0 2 -37 -7 -82 -20 -178 -52 -429 -68 -572 -38 -144 30 -271
117 -329 223 -29 53 -57 149 -57 194 l0 28 594 0 593 0 7 38 c3 20 6 87 6 148
0 426 -198 739 -530 834 -97 28 -303 36 -405 16z m311 -329 c116 -59 204 -218
204 -368 l0 -29 -391 0 -391 0 7 43 c18 105 76 219 147 288 79 76 147 100 278
96 79 -3 103 -8 146 -30z"/>
<path d="M13497 11985 c-329 -63 -569 -324 -644 -702 -24 -121 -24 -349 1
-463 75 -357 306 -583 660 -645 212 -37 549 -1 741 79 l33 14 -28 113 c-15 63
-30 113 -34 112 -194 -64 -299 -83 -461 -83 -191 0 -330 45 -439 141 -100 88
-170 239 -183 395 l-6 74 621 0 620 0 7 76 c8 86 1 183 -21 299 -58 297 -245
514 -499 580 -87 23 -273 28 -368 10z m234 -225 c193 -36 321 -200 345 -440
l7 -70 -472 0 c-445 0 -472 1 -468 18 3 9 11 42 17 72 7 30 31 96 55 145 103
215 294 317 516 275z"/>
<path d="M15175 11986 c-44 -7 -109 -21 -145 -30 -82 -22 -250 -101 -250 -117
0 -7 14 -57 32 -110 l32 -97 60 30 c142 72 289 104 438 96 163 -10 269 -72
323 -191 24 -51 45 -152 45 -213 l0 -31 -127 -7 c-264 -14 -440 -53 -603 -134
-76 -37 -110 -62 -170 -122 -114 -113 -160 -226 -160 -390 0 -155 42 -262 145
-366 109 -109 227 -149 425 -142 108 4 136 9 205 35 117 43 213 109 274 187
20 25 32 34 35 25 4 -12 26 -181 26 -201 0 -5 65 -8 145 -8 110 0 145 3 145
13 -1 6 -5 44 -11 82 -6 39 -14 322 -18 630 -8 537 -9 563 -30 635 -65 220
-194 351 -401 410 -97 27 -301 35 -415 16z m533 -1083 c-3 -191 -4 -200 -30
-256 -132 -282 -548 -346 -676 -103 -24 46 -27 62 -27 151 0 82 4 109 22 147
75 162 293 248 656 257 l58 1 -3 -197z"/>
<path d="M19110 8735 l0 -525 60 0 60 0 0 525 0 525 -60 0 -60 0 0 -525z"/>
<path d="M25010 8735 l0 -525 65 0 64 0 3 254 3 254 31 39 c45 57 87 75 161
71 72 -4 103 -26 134 -93 16 -35 19 -68 19 -282 l0 -243 66 0 65 0 -3 263 c-3
251 -4 264 -27 315 -40 90 -132 152 -224 152 -59 0 -132 -32 -179 -80 l-48
-47 0 223 0 224 -65 0 -65 0 0 -525z"/>
<path d="M19475 9187 c-57 -48 -28 -137 45 -137 42 0 80 35 80 75 0 70 -73
107 -125 62z"/>
<path d="M17148 9112 l-58 -14 0 -89 0 -89 -55 0 -55 0 0 -45 0 -45 55 0 55 0
0 -225 c0 -237 9 -308 42 -351 42 -52 135 -76 227 -58 29 6 31 9 31 53 l0 47
-61 -1 c-110 0 -123 38 -117 355 l3 175 93 3 92 3 0 44 0 45 -95 0 -94 0 -3
103 -3 103 -57 -14z"/>
<path d="M14820 8926 c-140 -39 -228 -145 -252 -304 -26 -176 50 -335 191
-401 48 -22 69 -26 151 -26 82 0 103 4 151 26 72 34 134 96 168 168 24 51 26
67 26 176 0 108 -3 125 -26 175 -49 103 -113 158 -216 185 -68 18 -131 18
-193 1z m208 -118 c22 -15 49 -48 67 -79 24 -45 30 -69 33 -139 5 -100 -6
-149 -48 -212 -33 -50 -112 -98 -159 -98 -84 0 -163 56 -202 143 -19 42 -24
69 -24 142 0 80 3 96 30 150 17 32 46 72 66 87 64 51 165 53 237 6z"/>
<path d="M16512 8929 c-40 -12 -119 -88 -128 -123 -12 -48 -24 -26 -24 44 l0
70 -56 0 -57 0 6 -67 c4 -38 7 -197 7 -355 l0 -288 60 0 60 0 0 203 c0 111 5
222 11 247 22 96 93 159 182 160 l37 0 0 60 0 60 -32 -1 c-18 0 -48 -5 -66
-10z"/>
<path d="M17680 8927 c-77 -18 -132 -46 -125 -64 3 -8 8 -26 11 -40 7 -27 7
-27 84 3 65 25 166 24 209 -1 41 -24 71 -77 71 -126 l0 -36 -84 -6 c-214 -17
-331 -97 -343 -237 -7 -75 15 -137 62 -179 84 -74 238 -67 333 15 22 18 43 34
46 34 3 0 6 -18 6 -40 l0 -40 58 0 57 0 -3 222 c-1 123 -7 254 -13 291 -14 87
-56 152 -120 185 -57 29 -169 37 -249 19z m260 -414 c0 -81 -16 -128 -57 -174
-53 -59 -140 -76 -200 -39 -42 25 -57 55 -56 111 1 102 84 156 246 158 l67 1
0 -57z"/>
<path d="M18465 8927 c-66 -22 -99 -43 -142 -90 -52 -57 -69 -90 -89 -174 -33
-139 2 -280 90 -369 66 -65 130 -89 225 -82 76 6 120 25 175 77 l38 36 -4 -90
c-5 -105 -30 -164 -87 -202 -70 -47 -182 -54 -282 -18 -24 9 -51 19 -60 21
-11 4 -19 -5 -27 -34 -7 -22 -12 -44 -12 -50 0 -22 140 -56 230 -56 190 0 303
74 346 229 13 49 17 128 21 428 l5 367 -56 0 -56 0 0 -50 c0 -27 -2 -50 -5
-50 -3 0 -20 16 -37 36 -17 19 -49 44 -70 55 -50 25 -150 33 -203 16z m173
-102 c93 -39 121 -98 122 -251 0 -99 -3 -115 -26 -162 -61 -122 -213 -146
-310 -48 -95 95 -99 297 -7 406 53 63 145 86 221 55z"/>
<path d="M20070 8921 c-37 -13 -69 -34 -98 -65 -24 -25 -45 -46 -48 -46 -2 0
-4 25 -4 55 l0 55 -61 0 c-52 0 -60 -2 -55 -16 3 -9 6 -168 6 -355 l0 -339 65
0 65 0 0 240 c0 267 4 288 70 343 55 47 169 50 217 6 57 -53 63 -82 63 -346
l0 -243 66 0 65 0 -3 263 c-3 249 -4 265 -26 312 -60 129 -188 184 -322 136z"/>
<path d="M20828 8927 c-149 -43 -238 -183 -238 -378 0 -157 55 -258 174 -319
67 -34 72 -35 185 -35 87 0 129 5 170 19 l53 18 -6 41 c-4 23 -9 43 -10 45 -2
2 -28 -4 -57 -12 -29 -9 -89 -16 -135 -16 -70 0 -89 4 -135 28 -66 35 -110 98
-117 172 l-5 50 252 0 251 0 6 25 c3 14 3 51 -1 83 -15 123 -75 221 -159 262
-56 27 -164 35 -228 17z m149 -88 c60 -22 106 -89 116 -166 l5 -43 -194 0
-194 0 0 23 c0 31 43 118 71 144 52 47 135 65 196 42z"/>
<path d="M21905 8931 c-163 -40 -265 -200 -253 -400 7 -128 73 -240 173 -294
32 -18 57 -22 130 -22 80 0 95 3 137 27 25 16 55 39 66 53 11 14 23 25 27 25
4 0 5 -38 3 -84 -10 -146 -70 -225 -186 -242 -58 -9 -165 8 -218 33 l-41 20
-16 -49 -16 -50 43 -19 c70 -31 186 -44 269 -30 137 23 216 80 258 187 24 63
25 74 32 622 l2 212 -51 0 -51 0 -7 -49 -7 -50 -43 44 c-64 63 -159 88 -251
66z m171 -110 c45 -21 85 -67 103 -120 14 -43 14 -204 0 -256 -15 -55 -82
-120 -138 -135 -112 -30 -221 41 -252 165 -17 66 -7 191 18 240 56 108 168
152 269 106z"/>
<path d="M22740 8926 c-141 -39 -228 -145 -252 -306 -26 -173 51 -333 191
-399 48 -22 69 -26 151 -26 82 0 103 4 151 26 72 34 134 96 168 168 24 51 26
67 26 176 0 108 -3 125 -26 175 -49 103 -113 158 -216 185 -68 18 -131 18
-193 1z m198 -110 c37 -19 87 -91 102 -146 14 -50 12 -178 -4 -223 -24 -65
-65 -115 -119 -142 -79 -39 -150 -29 -217 31 -59 53 -84 121 -85 229 0 81 3
96 30 150 17 32 46 72 66 87 59 47 152 53 227 14z"/>
<path d="M23547 8926 c-96 -26 -175 -104 -218 -213 -32 -82 -32 -233 0 -314
31 -80 87 -140 163 -175 58 -26 73 -29 173 -29 76 0 128 6 168 18 l58 18 -7
37 c-3 20 -9 40 -13 44 -3 4 -28 1 -55 -7 -27 -8 -86 -15 -130 -15 -103 0
-170 29 -215 90 -25 34 -51 112 -51 150 0 6 101 10 256 10 l256 0 -4 89 c-7
158 -76 259 -201 296 -61 18 -115 18 -180 1z m158 -95 c22 -10 48 -28 58 -39
24 -27 46 -88 47 -129 l0 -33 -194 0 -194 0 8 33 c14 57 28 85 66 126 54 61
134 77 209 42z"/>
<path d="M24244 8931 c-118 -29 -194 -141 -165 -247 15 -58 72 -106 183 -158
111 -51 143 -85 134 -145 -14 -94 -136 -126 -265 -70 -24 10 -45 19 -46 19 -2
0 -10 -21 -19 -46 l-15 -45 45 -21 c58 -25 175 -34 242 -18 108 25 169 89 180
187 11 100 -52 178 -188 233 -44 18 -90 42 -104 55 -50 46 -44 104 15 148 33
24 120 25 175 2 20 -8 40 -15 44 -15 11 0 32 82 23 91 -14 14 -125 39 -168 38
-22 -1 -54 -4 -71 -8z"/>
<path d="M26028 8927 c-149 -43 -238 -183 -238 -378 0 -157 55 -258 174 -319
67 -34 72 -35 185 -35 87 0 129 5 170 19 l53 18 -6 41 c-4 23 -9 43 -10 45 -2
2 -28 -4 -57 -12 -29 -9 -89 -16 -135 -16 -70 0 -89 4 -135 28 -66 35 -110 98
-117 172 l-5 50 252 0 251 0 6 25 c3 14 3 51 -1 83 -15 123 -75 221 -159 262
-56 27 -164 35 -228 17z m149 -88 c60 -22 106 -89 116 -166 l5 -43 -194 0
-194 0 0 23 c0 31 43 118 71 144 52 47 135 65 196 42z"/>
<path d="M26836 8925 c-48 -17 -102 -69 -118 -112 -19 -52 -28 -39 -28 37 l0
70 -55 0 -55 0 0 -355 0 -355 64 0 64 0 4 233 c3 214 5 235 24 272 36 67 95
105 164 105 l40 0 0 60 0 60 -32 0 c-18 -1 -50 -7 -72 -15z"/>
<path d="M27275 8934 c-179 -46 -272 -188 -263 -404 3 -84 8 -105 36 -163 37
-74 72 -109 152 -146 49 -23 68 -26 165 -26 79 0 127 5 171 19 l61 18 -10 42
c-5 22 -11 42 -13 44 -1 2 -26 -4 -55 -12 -29 -9 -89 -16 -135 -16 -70 0 -89
4 -135 28 -66 35 -110 98 -117 172 l-5 50 254 2 254 3 -2 75 c-3 133 -63 244
-157 290 -44 21 -159 35 -201 24z m128 -98 c35 -14 84 -65 97 -100 4 -12 10
-40 14 -63 l6 -43 -195 0 c-218 0 -208 -4 -181 73 42 115 158 176 259 133z"/>
<path d="M13842 8903 c3 -10 65 -166 137 -347 l133 -330 -24 -50 c-28 -62
-110 -146 -171 -175 l-45 -22 16 -49 c9 -28 22 -50 29 -50 24 0 113 50 153 87
49 43 117 151 164 259 34 78 266 679 266 689 0 3 -29 5 -64 5 l-64 0 -30 -82
c-16 -46 -57 -168 -91 -273 -34 -104 -64 -197 -67 -205 -3 -8 -23 37 -44 100
-22 63 -68 192 -103 285 l-64 170 -68 3 c-61 3 -67 1 -63 -15z"/>
<path d="M15432 8653 c3 -257 4 -270 27 -320 73 -164 281 -194 413 -62 43 43
48 46 48 25 0 -13 3 -38 6 -55 6 -30 8 -31 62 -31 l55 0 -7 61 c-3 34 -6 194
-6 355 l0 294 -59 0 -60 0 -3 -247 c-3 -241 -4 -249 -27 -286 -37 -60 -93 -92
-162 -92 -66 0 -101 20 -134 76 -18 31 -20 55 -23 292 l-3 257 -65 0 -65 0 3
-267z"/>
<path d="M19460 8565 l0 -355 65 0 65 0 0 355 0 355 -65 0 -65 0 0 -355z"/>
</g>
</svg>
